<svg width="133" height="24" viewBox="0 0 133 24" fill="none" xmlns="http://www.w3.org/2000/svg">
<path d="M10.4415 5.48367V20.4L13.2558 16.9L16.4081 20.4V5.48367H10.4415Z" fill="#005C73"/>
<path d="M9.15527e-05 8.72048C7.54229 1.89318 18.9692 1.89318 26.5115 8.72048V20.3948L26.5063 20.4L13.2558 6.95095L0.00528918 20.4L9.15527e-05 20.3948V8.72048Z" fill="#005C73"/>
<path d="M38.6333 7.55859V14.2852H41.9966C42.4575 14.2852 42.8911 14.1992 43.2974 14.0273C43.7036 13.8477 44.0591 13.6055 44.3638 13.3008C44.6685 12.9961 44.9067 12.6406 45.0786 12.2344C45.2583 11.8203 45.3481 11.3828 45.3481 10.9219C45.3481 10.4609 45.2583 10.0273 45.0786 9.62109C44.9067 9.20703 44.6685 8.84766 44.3638 8.54297C44.0591 8.23828 43.7036 8 43.2974 7.82812C42.8911 7.64844 42.4575 7.55859 41.9966 7.55859H38.6333ZM38.6333 21H35.27V4.19531H41.9966C42.6138 4.19531 43.2075 4.27734 43.7778 4.44141C44.3481 4.59766 44.8794 4.82422 45.3716 5.12109C45.8716 5.41016 46.3247 5.76172 46.731 6.17578C47.145 6.58203 47.4966 7.03516 47.7856 7.53516C48.0825 8.03516 48.3091 8.57031 48.4653 9.14062C48.6294 9.71094 48.7114 10.3047 48.7114 10.9219C48.7114 11.8438 48.5356 12.7148 48.1841 13.5352C47.8325 14.3477 47.3521 15.0586 46.7427 15.668C46.1333 16.2773 45.4185 16.7578 44.5981 17.1094C43.7856 17.4609 42.9185 17.6367 41.9966 17.6367H38.6333V21ZM55.3442 17.9297C55.4692 17.9688 55.5942 17.9961 55.7192 18.0117C55.8442 18.0195 55.9692 18.0234 56.0942 18.0234C56.4067 18.0234 56.7075 17.9805 56.9966 17.8945C57.2856 17.8086 57.5552 17.6875 57.8052 17.5312C58.063 17.3672 58.2896 17.1719 58.4849 16.9453C58.688 16.7109 58.8521 16.4531 58.9771 16.1719L61.3208 18.5273C61.0239 18.9492 60.6802 19.3281 60.2896 19.6641C59.9067 20 59.4888 20.2852 59.0356 20.5195C58.5903 20.7539 58.1177 20.9297 57.6177 21.0469C57.1255 21.1719 56.6177 21.2344 56.0942 21.2344C55.2114 21.2344 54.3794 21.0703 53.5981 20.7422C52.8247 20.4141 52.145 19.957 51.5591 19.3711C50.981 18.7852 50.5239 18.0898 50.188 17.2852C49.8521 16.4727 49.6841 15.582 49.6841 14.6133C49.6841 13.6211 49.8521 12.7148 50.188 11.8945C50.5239 11.0742 50.981 10.375 51.5591 9.79688C52.145 9.21875 52.8247 8.76953 53.5981 8.44922C54.3794 8.12891 55.2114 7.96875 56.0942 7.96875C56.6177 7.96875 57.1294 8.03125 57.6294 8.15625C58.1294 8.28125 58.6021 8.46094 59.0474 8.69531C59.5005 8.92969 59.9224 9.21875 60.313 9.5625C60.7036 9.89844 61.0474 10.2773 61.3442 10.6992L55.3442 17.9297ZM56.9849 11.332C56.8364 11.2773 56.688 11.2422 56.5396 11.2266C56.3989 11.2109 56.2505 11.2031 56.0942 11.2031C55.6567 11.2031 55.2427 11.2852 54.8521 11.4492C54.4692 11.6055 54.1333 11.832 53.8442 12.1289C53.563 12.4258 53.3403 12.7852 53.1763 13.207C53.0122 13.6211 52.9302 14.0898 52.9302 14.6133C52.9302 14.7305 52.9341 14.8633 52.9419 15.0117C52.9575 15.1602 52.9771 15.3125 53.0005 15.4688C53.0317 15.6172 53.0669 15.7617 53.106 15.9023C53.145 16.043 53.1958 16.168 53.2583 16.2773L56.9849 11.332ZM66.1606 21H62.9614V8.44922H63.7349L64.7896 9.9375C65.3052 9.46875 65.8911 9.10938 66.5474 8.85938C67.2036 8.60156 67.8833 8.47266 68.5864 8.47266H71.4106V11.6602H68.5864C68.2505 11.6602 67.9341 11.7227 67.6372 11.8477C67.3403 11.9727 67.0825 12.1445 66.8638 12.3633C66.645 12.582 66.4731 12.8398 66.3481 13.1367C66.2231 13.4336 66.1606 13.75 66.1606 14.0859V21ZM76.1216 21H72.8989V3.45703H76.1216V14.5195L80.8911 8.47266H84.5708L80.4106 13.6992L84.5708 21H80.8911L78.3481 16.4414L76.1216 19.3945V21ZM89.9028 21H86.7036V11.6367H85.145V8.44922H86.7036V7.85156C86.7036 7.07812 86.8481 6.35156 87.1372 5.67188C87.4341 4.99219 87.8364 4.40234 88.3442 3.90234C88.8599 3.39453 89.4575 2.99609 90.1372 2.70703C90.8169 2.41016 91.5435 2.26172 92.3169 2.26172H94.7192V5.44922H92.3169C91.9731 5.44922 91.6528 5.51172 91.356 5.63672C91.0669 5.75391 90.813 5.92187 90.5942 6.14062C90.3833 6.35156 90.2153 6.60547 90.0903 6.90234C89.9653 7.19141 89.9028 7.50781 89.9028 7.85156V8.44922H93.8286V11.6367H89.9028V21ZM98.5747 21H95.3521V3.45703H98.5747V21ZM113.153 14.6133C113.153 15.5508 112.985 16.4258 112.649 17.2383C112.313 18.043 111.856 18.7422 111.278 19.3359C110.7 19.9219 110.02 20.3867 109.239 20.7305C108.465 21.0664 107.633 21.2344 106.743 21.2344C105.86 21.2344 105.028 21.0664 104.247 20.7305C103.473 20.3867 102.793 19.9219 102.208 19.3359C101.629 18.7422 101.172 18.043 100.836 17.2383C100.5 16.4258 100.333 15.5508 100.333 14.6133C100.333 13.6602 100.5 12.7773 100.836 11.9648C101.172 11.1523 101.629 10.4531 102.208 9.86719C102.793 9.27344 103.473 8.80859 104.247 8.47266C105.028 8.13672 105.86 7.96875 106.743 7.96875C107.633 7.96875 108.465 8.12891 109.239 8.44922C110.02 8.76172 110.7 9.21094 111.278 9.79688C111.856 10.375 112.313 11.0742 112.649 11.8945C112.985 12.707 113.153 13.6133 113.153 14.6133ZM109.93 14.6133C109.93 14.0977 109.844 13.6328 109.672 13.2188C109.508 12.7969 109.282 12.4375 108.993 12.1406C108.704 11.8359 108.364 11.6055 107.973 11.4492C107.59 11.2852 107.18 11.2031 106.743 11.2031C106.305 11.2031 105.891 11.2852 105.5 11.4492C105.118 11.6055 104.782 11.8359 104.493 12.1406C104.211 12.4375 103.989 12.7969 103.825 13.2188C103.661 13.6328 103.579 14.0977 103.579 14.6133C103.579 15.0977 103.661 15.5469 103.825 15.9609C103.989 16.375 104.211 16.7344 104.493 17.0391C104.782 17.3438 105.118 17.5859 105.5 17.7656C105.891 17.9375 106.305 18.0234 106.743 18.0234C107.18 18.0234 107.59 17.9414 107.973 17.7773C108.364 17.6133 108.704 17.3828 108.993 17.0859C109.282 16.7891 109.508 16.4297 109.672 16.0078C109.844 15.5859 109.93 15.1211 109.93 14.6133ZM130.766 16.4648C130.766 17.1211 130.641 17.7422 130.391 18.3281C130.141 18.9062 129.797 19.4102 129.36 19.8398C128.93 20.2695 128.422 20.6094 127.836 20.8594C127.258 21.1094 126.637 21.2344 125.973 21.2344C125.379 21.2344 124.809 21.1328 124.262 20.9297C123.715 20.7188 123.219 20.4141 122.774 20.0156C122.336 20.4141 121.844 20.7188 121.297 20.9297C120.758 21.1328 120.188 21.2344 119.586 21.2344C118.922 21.2344 118.301 21.1094 117.723 20.8594C117.145 20.6094 116.637 20.2695 116.2 19.8398C115.77 19.4102 115.43 18.9062 115.18 18.3281C114.93 17.7422 114.805 17.1211 114.805 16.4648V8.47266H118.004V16.4648C118.004 16.6836 118.043 16.8906 118.122 17.0859C118.208 17.2734 118.321 17.4414 118.461 17.5898C118.61 17.7305 118.778 17.8438 118.965 17.9297C119.161 18.0078 119.368 18.0469 119.586 18.0469C119.805 18.0469 120.012 18.0078 120.208 17.9297C120.403 17.8438 120.575 17.7305 120.723 17.5898C120.872 17.4414 120.985 17.2734 121.063 17.0859C121.149 16.8906 121.192 16.6836 121.192 16.4648V8.47266H124.379V16.4648C124.379 16.6836 124.422 16.8906 124.508 17.0859C124.594 17.2734 124.708 17.4414 124.848 17.5898C124.997 17.7305 125.165 17.8438 125.352 17.9297C125.547 18.0078 125.754 18.0469 125.973 18.0469C126.192 18.0469 126.399 18.0078 126.594 17.9297C126.79 17.8438 126.958 17.7305 127.098 17.5898C127.247 17.4414 127.364 17.2734 127.45 17.0859C127.536 16.8906 127.579 16.6836 127.579 16.4648V8.47266H130.766V16.4648Z" fill="#005C73"/>
</svg>
